<svg xmlns="http://www.w3.org/2000/svg" version="1.0" width="916.000000pt" height="980.000000pt" viewBox="0 0 916.000000 980.000000" preserveAspectRatio="xMidYMid meet">

<g transform="translate(0.000000,980.000000) scale(0.100000,-0.100000)" fill="#f0e7e2" stroke="none">
<path d="M4315 9794 c-384 -28 -614 -64 -935 -144 -710 -178 -1374 -519 -1948 -999 -569 -477 -1057 -1129 -1340 -1791 -68 -158 -85 -231 -85 -365 0 -140 19 -221 85 -355 45 -93 61 -115 147 -200 78 -78 113 -105 186 -142 127 -66 232 -91 370 -90 306 2 572 169 701 440 181 380 255 511 401 711 204 279 458 532 736 734 469 342 1013 551 1602 617 644 71 1348 -70 1916 -385 159 -88 416 -256 433 -283 3 -5 -101 -25 -231 -45 -264 -41 -314 -58 -383 -127 -67 -67 -95 -138 -95 -240 0 -71 4 -94 26 -140 35 -76 77 -121 146 -157 32 -17 598 -274 1259 -571 770 -347 1220 -544 1255 -550 150 -28 301 51 365 191 l29 62 6 510 c4 281 7 911 8 1402 1 874 1 893 -19 947 -29 76 -88 139 -168 178 -60 30 -76 33 -152 33 -100 0 -154 -20 -222 -84 -25 -22 -122 -157 -218 -300 l-173 -260 -76 71 c-677 633 -1502 1061 -2396 1242 -136 28 -360 61 -515 76 -107 11 -624 21 -715 14z" fill="#f0e7e2"/>
<path d="M470 4086 c-104 -22 -186 -86 -237 -186 l-28 -55 -6 -515 c-4 -283 -7 -916 -8 -1407 -1 -874 -1 -893 19 -947 29 -76 88 -139 168 -178 60 -30 76 -33 152 -33 100 0 154 20 222 84 25 22 122 157 217 300 l173 260 122 -111 c812 -740 1779 -1170 2883 -1280 167 -16 700 -17 863 0 657 67 1208 224 1770 506 673 338 1274 844 1729 1455 274 369 562 895 626 1146 23 91 24 265 2 357 -73 297 -300 524 -595 594 -97 23 -266 21 -366 -5 -220 -58 -412 -212 -505 -406 -16 -33 -60 -125 -98 -205 -158 -332 -358 -616 -621 -884 -554 -565 -1242 -899 -2032 -987 -148 -17 -533 -17 -675 0 -499 57 -950 210 -1365 461 -97 58 -268 176 -298 204 -9 9 39 20 224 49 263 41 315 58 384 127 23 23 54 67 69 99 36 76 37 201 3 275 -36 78 -84 129 -159 168 -37 20 -604 277 -1259 571 -1090 490 -1263 564 -1313 556 -3 0 -31 -6 -61 -13z" fill="#f0e7e2"/>
</g>
</svg>